<svg xmlns="http://www.w3.org/2000/svg" width="1822" height="54" viewBox="0 0 1822 54"><path d="M1821,54a1,1,0,1,1,1-1A1,1,0,0,1,1821,54Zm-52,0a1,1,0,1,1,1-1A1,1,0,0,1,1769,54Zm-52,0a1,1,0,1,1,1-1A1,1,0,0,1,1717,54Zm-52,0a1,1,0,1,1,1-1A1,1,0,0,1,1665,54Zm-52,0a1,1,0,1,1,1-1A1,1,0,0,1,1613,54Zm-52,0a1,1,0,1,1,1-1A1,1,0,0,1,1561,54Zm-52,0a1,1,0,1,1,1-1A1,1,0,0,1,1509,54Zm-52,0a1,1,0,1,1,1-1A1,1,0,0,1,1457,54Zm-52,0a1,1,0,1,1,1-1A1,1,0,0,1,1405,54Zm-52,0a1,1,0,1,1,1-1A1,1,0,0,1,1353,54Zm-52,0a1,1,0,1,1,1-1A1,1,0,0,1,1301,54Zm-52,0a1,1,0,1,1,1-1A1,1,0,0,1,1249,54Zm-52,0a1,1,0,1,1,1-1A1,1,0,0,1,1197,54Zm-52,0a1,1,0,1,1,1-1A1,1,0,0,1,1145,54Zm-52,0a1,1,0,1,1,1-1A1,1,0,0,1,1093,54Zm-52,0a1,1,0,1,1,1-1A1,1,0,0,1,1041,54Zm-52,0a1,1,0,1,1,1-1A1,1,0,0,1,989,54Zm-52,0a1,1,0,1,1,1-1A1,1,0,0,1,937,54Zm-52,0a1,1,0,1,1,1-1A1,1,0,0,1,885,54Zm-52,0a1,1,0,1,1,1-1A1,1,0,0,1,833,54Zm-52,0a1,1,0,1,1,1-1A1,1,0,0,1,781,54Zm-52,0a1,1,0,1,1,1-1A1,1,0,0,1,729,54Zm-52,0a1,1,0,1,1,1-1A1,1,0,0,1,677,54Zm-52,0a1,1,0,1,1,1-1A1,1,0,0,1,625,54Zm-52,0a1,1,0,1,1,1-1A1,1,0,0,1,573,54Zm-52,0a1,1,0,1,1,1-1A1,1,0,0,1,521,54Zm-52,0a1,1,0,1,1,1-1A1,1,0,0,1,469,54Zm-52,0a1,1,0,1,1,1-1A1,1,0,0,1,417,54Zm-52,0a1,1,0,1,1,1-1A1,1,0,0,1,365,54Zm-52,0a1,1,0,1,1,1-1A1,1,0,0,1,313,54Zm-52,0a1,1,0,1,1,1-1A1,1,0,0,1,261,54Zm-52,0a1,1,0,1,1,1-1A1,1,0,0,1,209,54Zm-52,0a1,1,0,1,1,1-1A1,1,0,0,1,157,54Zm-52,0a1,1,0,1,1,1-1A1,1,0,0,1,105,54ZM53,54a1,1,0,1,1,1-1A1,1,0,0,1,53,54ZM1,54a1,1,0,1,1,1-1A1,1,0,0,1,1,54ZM1769,2a1,1,0,1,1,1-1A1,1,0,0,1,1769,2Zm-52,0a1,1,0,1,1,1-1A1,1,0,0,1,1717,2Zm-52,0a1,1,0,1,1,1-1A1,1,0,0,1,1665,2Zm-52,0a1,1,0,1,1,1-1A1,1,0,0,1,1613,2Zm-52,0a1,1,0,1,1,1-1A1,1,0,0,1,1561,2Zm-52,0a1,1,0,1,1,1-1A1,1,0,0,1,1509,2Zm-52,0a1,1,0,1,1,1-1A1,1,0,0,1,1457,2Zm-52,0a1,1,0,1,1,1-1A1,1,0,0,1,1405,2Zm-52,0a1,1,0,1,1,1-1A1,1,0,0,1,1353,2Zm-52,0a1,1,0,1,1,1-1A1,1,0,0,1,1301,2Zm-52,0a1,1,0,1,1,1-1A1,1,0,0,1,1249,2Zm-52,0a1,1,0,1,1,1-1A1,1,0,0,1,1197,2Zm-52,0a1,1,0,1,1,1-1A1,1,0,0,1,1145,2Zm-52,0a1,1,0,1,1,1-1A1,1,0,0,1,1093,2Zm-52,0a1,1,0,1,1,1-1A1,1,0,0,1,1041,2ZM781,2a1,1,0,1,1,1-1A1,1,0,0,1,781,2ZM729,2a1,1,0,1,1,1-1A1,1,0,0,1,729,2ZM677,2a1,1,0,1,1,1-1A1,1,0,0,1,677,2ZM625,2a1,1,0,1,1,1-1A1,1,0,0,1,625,2ZM573,2a1,1,0,1,1,1-1A1,1,0,0,1,573,2ZM521,2a1,1,0,1,1,1-1A1,1,0,0,1,521,2ZM469,2a1,1,0,1,1,1-1A1,1,0,0,1,469,2ZM417,2a1,1,0,1,1,1-1A1,1,0,0,1,417,2ZM365,2a1,1,0,1,1,1-1A1,1,0,0,1,365,2ZM313,2a1,1,0,1,1,1-1A1,1,0,0,1,313,2ZM261,2a1,1,0,1,1,1-1A1,1,0,0,1,261,2ZM209,2a1,1,0,1,1,1-1A1,1,0,0,1,209,2ZM157,2a1,1,0,1,1,1-1A1,1,0,0,1,157,2ZM105,2a1,1,0,1,1,1-1A1,1,0,0,1,105,2ZM53,2a1,1,0,1,1,1-1A1,1,0,0,1,53,2Z" transform="translate(0)" fill="#fff" opacity="0.35"/></svg>