<svg xmlns="http://www.w3.org/2000/svg" width="14" height="16.671" viewBox="0 0 14 16.671"><g transform="translate(0)" fill="none" stroke-miterlimit="10"><path d="M6.647,16.525l-6.5-6.5a.5.5,0,0,1,0-.708L.16,9.3a.5.5,0,0,1,.707,0l5.625,5.625V.5a.5.5,0,0,1,.5-.5h.019a.5.5,0,0,1,.5.5V14.925l5.62-5.62a.5.5,0,0,1,.708,0l.014.014a.5.5,0,0,1,0,.708L7.367,16.511l-.014.014a.5.5,0,0,1-.707,0Z" stroke="none"/><path d="M 7.000200271606445 16.67137718200684 C 6.872170448303223 16.67137718200684 6.744150161743164 16.6225471496582 6.646500110626221 16.52489852905273 L 0.1467002779245377 10.02599716186523 C -0.0485997274518013 9.830698013305664 -0.0485997274518013 9.512997627258301 0.1467002779245377 9.317697525024414 L 0.1602002680301666 9.304197311401367 C 0.2578502595424652 9.206547737121582 0.3858752846717834 9.157722473144531 0.5139002799987793 9.157722473144531 C 0.6419252753257751 9.157722473144531 0.769950270652771 9.206547737121582 0.8676002621650696 9.304197311401367 L 6.492600440979004 14.92919731140137 L 6.492600440979004 0.5003976225852966 C 6.492600440979004 0.2240976393222809 6.716700077056885 -2.36267101172416e-06 6.993000507354736 -2.36267101172416e-06 L 7.011900424957275 -2.36267101172416e-06 C 7.288200378417969 -2.36267101172416e-06 7.512300491333008 0.2240976393222809 7.512300491333008 0.5003976225852966 L 7.512300491333008 14.92462730407715 L 13.1318998336792 9.304197311401367 C 13.23000049591064 9.206547737121582 13.35825061798096 9.157722473144531 13.48638820648193 9.157722473144531 C 13.61452484130859 9.157722473144531 13.74254989624023 9.206547737121582 13.84020042419434 9.304197311401367 L 13.85370063781738 9.317697525024414 C 14.04900074005127 9.512997627258301 14.04900074005127 9.830698013305664 13.85370063781738 10.02599716186523 L 7.367400169372559 16.51139831542969 L 7.35390043258667 16.52489852905273 C 7.256250381469727 16.6225471496582 7.128230094909668 16.67137718200684 7.000200271606445 16.67137718200684 Z" stroke="none" fill="#fff"/></g></svg>