<svg width="38" height="38" viewBox="0 0 38 38" fill="none" xmlns="http://www.w3.org/2000/svg">
<path d="M12.1634 10C10.9679 10 10.0002 10.9694 10 12.1623C10 13.3563 10.9677 14.3255 12.1636 14.3255C13.3563 14.3255 14.3253 13.3563 14.3253 12.1623C14.3253 10.9692 13.3561 10 12.1634 10Z" fill="white"/>
<path d="M14.028 15.9663H10.2975V27.969H14.028V15.9663Z" fill="white"/>
<path d="M23.5251 15.668C21.7104 15.668 20.4936 16.6629 19.9955 17.6065H19.9456V15.9664H16.3677H16.3675V27.9689H20.0948V22.0312C20.0948 20.4658 20.3928 18.9496 22.3336 18.9496C24.2466 18.9496 24.2721 20.7399 24.2721 22.1316V27.9687H28V21.3854C28 18.1538 27.3027 15.668 23.5251 15.668Z" fill="white"/>
</svg>
