<svg xmlns="http://www.w3.org/2000/svg" viewBox="0 0 279.897 103.592"><g fill="#fff"><path d="M129.075 54.719a29.6 29.6 0 01-9.522-6.212 28.148 28.148 0 01-6.485-9.161 27.434 27.434 0 01-2.161-10.914 27.5 27.5 0 012.161-10.924 28.306 28.306 0 016.485-9.188 29.568 29.568 0 019.522-6.24 31.731 31.731 0 0122.6 0 29.353 29.353 0 019.514 6.24 28.308 28.308 0 016.457 9.188 27.607 27.607 0 012.152 10.924 27.539 27.539 0 01-2.152 10.914 28.14 28.14 0 01-6.457 9.161 29.392 29.392 0 01-9.514 6.212 31.86 31.86 0 01-22.6 0zm-5.29-41.335a21.392 21.392 0 00-6.222 15.048 20.694 20.694 0 007.234 15.916 22.781 22.781 0 0015.555 6.077 22.139 22.139 0 0016.571-7.018 21.181 21.181 0 006.295-14.975 20.684 20.684 0 00-7.307-15.988 22.932 22.932 0 00-15.554-6 22.251 22.251 0 00-16.572 6.94zm156.111 42.322h-6.583V20.691h-7.524v35.015h-6.656V20.691h-2.17l-2.171-6.222h4.341V11a9.6 9.6 0 013.038-7.089 10.132 10.132 0 017.309-2.97 10.251 10.251 0 017.343 2.966A9.546 9.546 0 01279.897 11v44.706zM265.79 11v3.473h7.524V11c0-2.5-1.29-3.762-3.834-3.762-2.448-.004-3.69 1.262-3.69 3.762zm-34.267 44.706V1.447h6.656v54.259zm-145.4 0V7.813h-7.889V1.447h22.354v6.366h-7.885v47.893zm-42.3 0V20.69h-2.1l-2.17-6.222h4.27V1.447h16.713v6.366H50.48v6.655h9.55l2.243 6.222H50.48v28.649h10.056v6.367zm-26.669 0V16.061L7.678 9.405v46.3H1.023V1.447h5.932l10.2 7.162V1.447h6.583v54.259zm176.125 0h-6.656V1.446h5.571a23.77 23.77 0 018.792 1.754 23.508 23.508 0 017.415 4.973 22.514 22.514 0 015.046 7.234 21.63 21.63 0 011.682 8.536 21.43 21.43 0 01-1.583 8.239 22.341 22.341 0 01-4.747 7.062 23.143 23.143 0 01-7.044 4.983 23.735 23.735 0 01-8.473 2V55.7zm0-15.771a16.354 16.354 0 0010.851-5.245 15.377 15.377 0 004.341-10.743 15.2 15.2 0 00-4.448-11.034 16.547 16.547 0 00-10.743-5.028zM263.182 101.593a6.379 6.379 0 01-2.826-5.756l.032-.1h5.282a3.479 3.479 0 001.092 2.89 5.26 5.26 0 003.308.868 3.93 3.93 0 002.514-.674 2.171 2.171 0 00.826-1.767 2.335 2.335 0 00-.819-1.911 10.447 10.447 0 00-2.938-1.429 22.664 22.664 0 01-6.567-2.994 5.412 5.412 0 01-2.136-4.616 5.584 5.584 0 012.55-4.751 10.864 10.864 0 016.459-1.814 9.822 9.822 0 016.366 2 6.1 6.1 0 012.4 5.146l-.032.1h-5.267a2.951 2.951 0 00-.947-2.272 3.707 3.707 0 00-2.617-.876 4.1 4.1 0 00-2.569.723 2.18 2.18 0 00-.932 1.782 1.888 1.888 0 00.94 1.646 18.891 18.891 0 003.524 1.55 16.394 16.394 0 016 2.922 5.957 5.957 0 012.015 4.768 5.629 5.629 0 01-2.4 4.825 10.6 10.6 0 01-6.367 1.742 11.852 11.852 0 01-6.891-2.002zm-112.123-.2a7.586 7.586 0 01-2.665-6.2V79.877h5.443v15.318a4.166 4.166 0 001.108 3.187 4.41 4.41 0 003.13 1.036 4.322 4.322 0 003.092-1.028 4.217 4.217 0 001.084-3.195V79.877h5.443v15.318a7.6 7.6 0 01-2.658 6.2 10.561 10.561 0 01-6.961 2.2 10.673 10.673 0 01-7.015-2.203zm42.083 1.864H187.7v-23.38h8.992a10.152 10.152 0 016.439 1.878 6.221 6.221 0 012.376 5.138 5.139 5.139 0 01-.955 3.115 6.8 6.8 0 01-2.818 2.12 5.254 5.254 0 013.091 2.031 6.314 6.314 0 01.94 3.541v1.477a9.372 9.372 0 00.273 2.087 2.775 2.775 0 00.948 1.67v.32H201.4a2.682 2.682 0 01-.842-1.767 15.089 15.089 0 01-.2-2.344v-1.412a3.47 3.47 0 00-.884-2.552 3.518 3.518 0 00-2.585-.883h-3.741v8.96zm0-13.136h3.58a3.753 3.753 0 002.506-.747 2.687 2.687 0 00.867-2.143 3.1 3.1 0 00-.891-2.3 3.448 3.448 0 00-2.513-.875h-3.549zm32.708 13.135V79.877h16.281v4.174h-10.837v5.025h9.168v4.175h-9.168v5.828H242.1v4.175zm-107.6 0V84.051h-6.117v-4.174h17.726v4.174H123.7v19.2zm-29.769 0l-8.558-14.9-.1.032v14.867H74.39V79.877h5.443l8.558 14.9.1-.032V79.877H93.9v23.378zm-49.245 0V79.877h16.288v4.174H44.685v5.025h9.168v4.175h-9.168v5.828h10.806v4.175zm-31.7 0L0 79.877h5.668l4.576 17.036.161.851h.1l.16-.787 4.635-17.1h5.684l-7.577 23.378z"/></g></svg>