<svg xmlns="http://www.w3.org/2000/svg" width="37.5" height="37.5" viewBox="0 0 37.5 37.5"><rect width="37.5" height="37.5" rx="4" fill="#fff" opacity="0"/><path d="M18,1.273a6.137,6.137,0,0,1-1.929.636A3.037,3.037,0,0,0,17.357,0a7.511,7.511,0,0,1-2.12.838,3.873,3.873,0,0,0-5.108.28A3.975,3.975,0,0,0,9,4.136C5.5,3.925,3.4,1.814,1.929,0c-1.273,2.123-.346,4.521.643,5.091A2.611,2.611,0,0,1,.643,4.454,4.274,4.274,0,0,0,3.857,8.272c-.426.356-1.15.236-1.929,0a4.415,4.415,0,0,0,3.857,2.545A8.372,8.372,0,0,1,0,12.409c9.139,5.082,17.418-3.1,16.714-9.227.473-.307.791-1.135,1.286-1.909Z" transform="translate(10 12)" fill="#fff"/></svg>